<mxfile host="app.diagrams.net" modified="2023-10-10T00:18:56.532Z" agent="Mozilla/5.0 (Windows NT 10.0; Win64; x64) AppleWebKit/537.36 (KHTML, like Gecko) Chrome/117.0.0.0 Safari/537.36" etag="-24JJfxjZHhHaNKgQRqd" version="22.0.4" type="github">
  <diagram name="Página-1" id="M4AG1U2UbQ92fK8j8NIL">
    <mxGraphModel dx="821" dy="1945" grid="1" gridSize="10" guides="1" tooltips="1" connect="1" arrows="1" fold="1" page="1" pageScale="1" pageWidth="827" pageHeight="1169" math="0" shadow="0">
      <root>
        <mxCell id="0" />
        <mxCell id="1" parent="0" />
        <mxCell id="9rqynmllx5_fteItaD3S-75" value="" style="rounded=0;whiteSpace=wrap;html=1;" vertex="1" parent="1">
          <mxGeometry x="60" y="370" width="900" height="360" as="geometry" />
        </mxCell>
        <mxCell id="9rqynmllx5_fteItaD3S-1" value="" style="rounded=0;whiteSpace=wrap;html=1;" vertex="1" parent="1">
          <mxGeometry x="60" y="-40" width="680" height="380" as="geometry" />
        </mxCell>
        <mxCell id="9rqynmllx5_fteItaD3S-13" value="" style="edgeStyle=orthogonalEdgeStyle;rounded=0;orthogonalLoop=1;jettySize=auto;html=1;" edge="1" parent="1" source="9rqynmllx5_fteItaD3S-2" target="9rqynmllx5_fteItaD3S-12">
          <mxGeometry relative="1" as="geometry" />
        </mxCell>
        <mxCell id="9rqynmllx5_fteItaD3S-2" value="Pasta &lt;br&gt;Pitia_BackEnd" style="rounded=1;whiteSpace=wrap;html=1;" vertex="1" parent="1">
          <mxGeometry x="130" y="200" width="120" height="60" as="geometry" />
        </mxCell>
        <mxCell id="9rqynmllx5_fteItaD3S-4" value="Pasta&lt;br&gt;Pitia_logic" style="rounded=1;whiteSpace=wrap;html=1;" vertex="1" parent="1">
          <mxGeometry x="530" y="200" width="120" height="60" as="geometry" />
        </mxCell>
        <mxCell id="9rqynmllx5_fteItaD3S-7" value="" style="endArrow=classic;startArrow=classic;html=1;rounded=0;" edge="1" parent="1">
          <mxGeometry width="50" height="50" relative="1" as="geometry">
            <mxPoint x="448" y="230" as="sourcePoint" />
            <mxPoint x="530" y="230" as="targetPoint" />
            <Array as="points">
              <mxPoint x="530" y="230" />
            </Array>
          </mxGeometry>
        </mxCell>
        <mxCell id="9rqynmllx5_fteItaD3S-8" value="Projeto&amp;nbsp; Pitia BackEnd" style="text;html=1;strokeColor=#6c8ebf;fillColor=#dae8fc;align=center;verticalAlign=middle;whiteSpace=wrap;rounded=0;fontSize=15;" vertex="1" parent="1">
          <mxGeometry x="330" y="-10" width="96" height="50" as="geometry" />
        </mxCell>
        <mxCell id="9rqynmllx5_fteItaD3S-12" value="Pasta &lt;br&gt;Pitia_BackEnd" style="rounded=1;whiteSpace=wrap;html=1;" vertex="1" parent="1">
          <mxGeometry x="330" y="200" width="120" height="60" as="geometry" />
        </mxCell>
        <mxCell id="9rqynmllx5_fteItaD3S-15" value="Pasta&lt;br&gt;Pitia BackEnd" style="text;html=1;strokeColor=#6c8ebf;fillColor=#dae8fc;align=center;verticalAlign=middle;whiteSpace=wrap;rounded=0;fontSize=15;" vertex="1" parent="1">
          <mxGeometry x="340" y="400" width="96" height="50" as="geometry" />
        </mxCell>
        <mxCell id="9rqynmllx5_fteItaD3S-16" value="Arquivo&lt;br&gt;urls.py" style="rounded=1;whiteSpace=wrap;html=1;" vertex="1" parent="1">
          <mxGeometry x="100" y="550" width="120" height="60" as="geometry" />
        </mxCell>
        <mxCell id="9rqynmllx5_fteItaD3S-17" value="&lt;div&gt;&#39;users&#39;, UserViewSet&lt;/div&gt;&lt;div&gt;&lt;span style=&quot;background-color: initial;&quot;&gt;&#39;api_overview&#39;, OverviewViewSet&lt;/span&gt;&lt;br&gt;&lt;/div&gt;&lt;div&gt;api_detail&#39;, DetailedViewSet&lt;/div&gt;&lt;div&gt;api_chart&#39;, ChartViewSet&lt;/div&gt;&lt;div&gt;&lt;div&gt;&amp;nbsp;path(&#39;admin/&#39;, admin.site.urls),&lt;/div&gt;&lt;div&gt;&amp;nbsp;path(&#39;health/&#39;, health),&lt;/div&gt;&lt;div&gt;&amp;nbsp;path(&#39;readiness/&#39;, health),&lt;/div&gt;&lt;div&gt;&amp;nbsp;path(&#39;token/&#39;, token, name=&#39;token&#39;),&lt;/div&gt;&lt;div&gt;&amp;nbsp;path(&#39;refresh/&#39;, refresh_data, name=&#39;refreshData&#39;),&lt;/div&gt;&lt;div&gt;&amp;nbsp;path(&#39;api_auth/&#39;, SOAPLogin.as_view(), name=&#39;login&#39;,),&lt;/div&gt;&lt;/div&gt;" style="rounded=0;whiteSpace=wrap;html=1;align=left;spacingTop=0;" vertex="1" parent="1">
          <mxGeometry x="294" y="488" width="236" height="180" as="geometry" />
        </mxCell>
        <mxCell id="9rqynmllx5_fteItaD3S-18" value="" style="shape=flexArrow;endArrow=classic;html=1;rounded=0;exitX=1;exitY=0.5;exitDx=0;exitDy=0;" edge="1" parent="1" source="9rqynmllx5_fteItaD3S-16" target="9rqynmllx5_fteItaD3S-17">
          <mxGeometry width="50" height="50" relative="1" as="geometry">
            <mxPoint x="380" y="400" as="sourcePoint" />
            <mxPoint x="430" y="350" as="targetPoint" />
          </mxGeometry>
        </mxCell>
        <mxCell id="9rqynmllx5_fteItaD3S-20" value="Arquivo&lt;br&gt;settings.py" style="rounded=1;whiteSpace=wrap;html=1;" vertex="1" parent="1">
          <mxGeometry x="580" y="400" width="120" height="60" as="geometry" />
        </mxCell>
        <mxCell id="9rqynmllx5_fteItaD3S-21" value="Frameword Django" style="text;html=1;strokeColor=none;fillColor=none;align=center;verticalAlign=middle;whiteSpace=wrap;rounded=0;" vertex="1" parent="1">
          <mxGeometry x="110" y="770" width="60" height="30" as="geometry" />
        </mxCell>
        <mxCell id="9rqynmllx5_fteItaD3S-22" value="" style="edgeStyle=orthogonalEdgeStyle;rounded=0;orthogonalLoop=1;jettySize=auto;html=1;" edge="1" parent="1" source="9rqynmllx5_fteItaD3S-17">
          <mxGeometry relative="1" as="geometry">
            <mxPoint x="260" y="240" as="sourcePoint" />
            <mxPoint x="412" y="800" as="targetPoint" />
          </mxGeometry>
        </mxCell>
        <mxCell id="9rqynmllx5_fteItaD3S-23" value="" style="rounded=0;whiteSpace=wrap;html=1;" vertex="1" parent="1">
          <mxGeometry x="80" y="750" width="900" height="720" as="geometry" />
        </mxCell>
        <mxCell id="9rqynmllx5_fteItaD3S-24" value="Pasta&lt;br&gt;Pitia&amp;nbsp;" style="text;html=1;strokeColor=#6c8ebf;fillColor=#dae8fc;align=center;verticalAlign=middle;whiteSpace=wrap;rounded=0;fontSize=15;" vertex="1" parent="1">
          <mxGeometry x="342" y="760" width="96" height="50" as="geometry" />
        </mxCell>
        <mxCell id="9rqynmllx5_fteItaD3S-25" value="Arquivo&lt;br&gt;Views.py" style="rounded=1;whiteSpace=wrap;html=1;" vertex="1" parent="1">
          <mxGeometry x="100" y="970" width="120" height="60" as="geometry" />
        </mxCell>
        <mxCell id="9rqynmllx5_fteItaD3S-26" value="SOAPLogin()" style="rounded=0;whiteSpace=wrap;html=1;align=left;spacingTop=0;" vertex="1" parent="1">
          <mxGeometry x="340" y="830" width="90" height="40" as="geometry" />
        </mxCell>
        <mxCell id="9rqynmllx5_fteItaD3S-28" value="&lt;div&gt;2.1.1.1 get_context_data()&lt;/div&gt;&lt;div&gt;2.1.1.1 form_valid() . Faz toda a parte de session do usuário&lt;span style=&quot;&quot;&gt;&lt;/span&gt;&lt;/div&gt;&lt;div&gt;&lt;span style=&quot;&quot;&gt;&lt;span style=&quot;&quot;&gt;&lt;span style=&quot;white-space: pre;&quot;&gt;&amp;nbsp;&amp;nbsp;&amp;nbsp;&amp;nbsp;&lt;/span&gt;&lt;/span&gt;2.1.1.1 form_invalid()&lt;/span&gt;&lt;/div&gt;" style="rounded=0;whiteSpace=wrap;html=1;align=left;spacingTop=0;" vertex="1" parent="1">
          <mxGeometry x="480" y="770" width="410" height="60" as="geometry" />
        </mxCell>
        <mxCell id="9rqynmllx5_fteItaD3S-29" value="" style="endArrow=classic;html=1;rounded=0;entryX=0;entryY=0.5;entryDx=0;entryDy=0;exitX=0.5;exitY=0;exitDx=0;exitDy=0;" edge="1" parent="1" source="9rqynmllx5_fteItaD3S-25" target="9rqynmllx5_fteItaD3S-26">
          <mxGeometry width="50" height="50" relative="1" as="geometry">
            <mxPoint x="200" y="980" as="sourcePoint" />
            <mxPoint x="250" y="930" as="targetPoint" />
          </mxGeometry>
        </mxCell>
        <mxCell id="9rqynmllx5_fteItaD3S-30" value="" style="endArrow=classic;html=1;rounded=0;entryX=0;entryY=0.5;entryDx=0;entryDy=0;exitX=1;exitY=0.5;exitDx=0;exitDy=0;" edge="1" parent="1" source="9rqynmllx5_fteItaD3S-26" target="9rqynmllx5_fteItaD3S-28">
          <mxGeometry width="50" height="50" relative="1" as="geometry">
            <mxPoint x="210" y="990" as="sourcePoint" />
            <mxPoint x="320" y="930" as="targetPoint" />
          </mxGeometry>
        </mxCell>
        <mxCell id="9rqynmllx5_fteItaD3S-39" value="" style="edgeStyle=orthogonalEdgeStyle;rounded=0;orthogonalLoop=1;jettySize=auto;html=1;entryX=0;entryY=0.5;entryDx=0;entryDy=0;" edge="1" parent="1" source="9rqynmllx5_fteItaD3S-35" target="9rqynmllx5_fteItaD3S-44">
          <mxGeometry relative="1" as="geometry">
            <mxPoint x="426" y="990" as="targetPoint" />
            <Array as="points" />
          </mxGeometry>
        </mxCell>
        <mxCell id="9rqynmllx5_fteItaD3S-35" value="UserViewSet()" style="rounded=0;whiteSpace=wrap;html=1;align=left;spacingTop=0;" vertex="1" parent="1">
          <mxGeometry x="337" y="900" width="96" height="40" as="geometry" />
        </mxCell>
        <mxCell id="9rqynmllx5_fteItaD3S-37" value="" style="endArrow=classic;html=1;rounded=0;exitX=1;exitY=0.5;exitDx=0;exitDy=0;entryX=0;entryY=0.5;entryDx=0;entryDy=0;" edge="1" parent="1" target="9rqynmllx5_fteItaD3S-35" source="9rqynmllx5_fteItaD3S-25">
          <mxGeometry width="50" height="50" relative="1" as="geometry">
            <mxPoint x="200" y="1050" as="sourcePoint" />
            <mxPoint x="310" y="990" as="targetPoint" />
          </mxGeometry>
        </mxCell>
        <mxCell id="9rqynmllx5_fteItaD3S-40" value="OverViewSet()" style="rounded=0;whiteSpace=wrap;html=1;align=left;spacingTop=0;" vertex="1" parent="1">
          <mxGeometry x="332" y="970" width="106" height="40" as="geometry" />
        </mxCell>
        <mxCell id="9rqynmllx5_fteItaD3S-41" value="ChartViewSet(" style="rounded=0;whiteSpace=wrap;html=1;align=left;spacingTop=0;" vertex="1" parent="1">
          <mxGeometry x="330" y="1030" width="106" height="40" as="geometry" />
        </mxCell>
        <mxCell id="9rqynmllx5_fteItaD3S-44" value="" style="rounded=0;whiteSpace=wrap;html=1;align=left;spacingTop=0;" vertex="1" parent="1">
          <mxGeometry x="475" y="840" width="330" height="30" as="geometry" />
        </mxCell>
        <mxCell id="9rqynmllx5_fteItaD3S-46" value="DetailedViewSet()" style="rounded=0;whiteSpace=wrap;html=1;align=left;spacingTop=0;" vertex="1" parent="1">
          <mxGeometry x="327" y="1090" width="106" height="40" as="geometry" />
        </mxCell>
        <mxCell id="9rqynmllx5_fteItaD3S-47" value="&lt;div&gt;2.3.1.1 get_queryset() - responsalvel por chamar&amp;nbsp;&lt;span style=&quot;background-color: initial;&quot;&gt;a metodo WellInterface.search_wells()&amp;nbsp;&lt;/span&gt;&lt;/div&gt;&lt;div&gt;&lt;span style=&quot;&quot;&gt;&lt;/span&gt;&lt;/div&gt;&lt;div&gt;&lt;span style=&quot;&quot;&gt;&lt;span style=&quot;&quot;&gt;&lt;span style=&quot;white-space: pre;&quot;&gt;&amp;nbsp;&amp;nbsp;&amp;nbsp;&amp;nbsp;&lt;/span&gt;&lt;span style=&quot;white-space: pre;&quot;&gt;&amp;nbsp;&amp;nbsp;&amp;nbsp;&amp;nbsp;&lt;/span&gt;&lt;/span&gt;em well_Component.py Pasta 3 - Pitia_logic\Wells&lt;/span&gt;&lt;/div&gt;&lt;div&gt;&lt;span style=&quot;&quot;&gt;&lt;span style=&quot;&quot;&gt;&lt;span style=&quot;white-space: pre;&quot;&gt;&amp;nbsp;&amp;nbsp;&amp;nbsp;&amp;nbsp;&lt;/span&gt;&lt;span style=&quot;white-space: pre;&quot;&gt;&amp;nbsp;&amp;nbsp;&amp;nbsp;&amp;nbsp;&lt;/span&gt;&lt;/span&gt;2.3.1.1 list()&lt;/span&gt;&lt;/div&gt;&lt;div&gt;&lt;span style=&quot;&quot;&gt;&lt;span style=&quot;&quot;&gt;&lt;span style=&quot;white-space: pre;&quot;&gt;&amp;nbsp;&amp;nbsp;&amp;nbsp;&amp;nbsp;&lt;/span&gt;&lt;span style=&quot;white-space: pre;&quot;&gt;&amp;nbsp;&amp;nbsp;&amp;nbsp;&amp;nbsp;&lt;/span&gt;&lt;span style=&quot;white-space: pre;&quot;&gt;&amp;nbsp;&amp;nbsp;&amp;nbsp;&amp;nbsp;&lt;/span&gt;&lt;/span&gt;get_queryset()&lt;/span&gt;&lt;/div&gt;&lt;div&gt;&lt;span style=&quot;&quot;&gt;&lt;span style=&quot;&quot;&gt;&lt;span style=&quot;white-space: pre;&quot;&gt;&amp;nbsp;&amp;nbsp;&amp;nbsp;&amp;nbsp;&lt;/span&gt;&lt;span style=&quot;white-space: pre;&quot;&gt;&amp;nbsp;&amp;nbsp;&amp;nbsp;&amp;nbsp;&lt;/span&gt;&lt;span style=&quot;white-space: pre;&quot;&gt;&amp;nbsp;&amp;nbsp;&amp;nbsp;&amp;nbsp;&lt;/span&gt;&lt;/span&gt;AbandonInterface.load_best_alternatives(page) ,Pitia_logic\abandon&lt;/span&gt;&lt;/div&gt;&lt;div&gt;&lt;span style=&quot;&quot;&gt;&lt;span style=&quot;&quot;&gt;&lt;span style=&quot;white-space: pre;&quot;&gt;&amp;nbsp;&amp;nbsp;&amp;nbsp;&amp;nbsp;&lt;/span&gt;&lt;span style=&quot;white-space: pre;&quot;&gt;&amp;nbsp;&amp;nbsp;&amp;nbsp;&amp;nbsp;&lt;/span&gt;&lt;span style=&quot;white-space: pre;&quot;&gt;&amp;nbsp;&amp;nbsp;&amp;nbsp;&amp;nbsp;&lt;/span&gt;&lt;/span&gt;WellSerializer() serializers.py&lt;/span&gt;&lt;/div&gt;" style="rounded=0;whiteSpace=wrap;html=1;align=left;spacingTop=0;" vertex="1" parent="1">
          <mxGeometry x="480" y="890" width="480" height="150" as="geometry" />
        </mxCell>
        <mxCell id="9rqynmllx5_fteItaD3S-49" value="&lt;div&gt;2.4.1.1 get_queryset()&lt;/div&gt;&lt;div&gt;WellInterface().search_wells&lt;span style=&quot;&quot;&gt;&lt;/span&gt;&lt;/div&gt;&lt;div&gt;&lt;span style=&quot;&quot;&gt;&lt;span style=&quot;&quot;&gt;&lt;span style=&quot;white-space: pre;&quot;&gt;&amp;nbsp;&amp;nbsp;&amp;nbsp;&amp;nbsp;&lt;/span&gt;&lt;span style=&quot;white-space: pre;&quot;&gt;&amp;nbsp;&amp;nbsp;&amp;nbsp;&amp;nbsp;&lt;/span&gt;&lt;span style=&quot;white-space: pre;&quot;&gt;&amp;nbsp;&amp;nbsp;&amp;nbsp;&amp;nbsp;&lt;/span&gt;&lt;/span&gt;bandonInterface.load_best_alternatives&lt;/span&gt;&lt;/div&gt;&lt;div&gt;&lt;span style=&quot;&quot;&gt;&lt;span style=&quot;&quot;&gt;&lt;span style=&quot;white-space: pre;&quot;&gt;&amp;nbsp;&amp;nbsp;&amp;nbsp;&amp;nbsp;&lt;/span&gt;&lt;span style=&quot;white-space: pre;&quot;&gt;&amp;nbsp;&amp;nbsp;&amp;nbsp;&amp;nbsp;&lt;/span&gt;&lt;span style=&quot;white-space: pre;&quot;&gt;&amp;nbsp;&amp;nbsp;&amp;nbsp;&amp;nbsp;&lt;/span&gt;&lt;/span&gt;AbandonInterface.load_multiple_scopes_from_results&lt;/span&gt;&lt;/div&gt;&lt;div&gt;&lt;span style=&quot;&quot;&gt;&lt;span style=&quot;&quot;&gt;&lt;span style=&quot;white-space: pre;&quot;&gt;&amp;nbsp;&amp;nbsp;&amp;nbsp;&amp;nbsp;&lt;/span&gt;&lt;span style=&quot;white-space: pre;&quot;&gt;&amp;nbsp;&amp;nbsp;&amp;nbsp;&amp;nbsp;&lt;/span&gt;&lt;/span&gt;2.4.1.2 list()&lt;/span&gt;&lt;/div&gt;&lt;div&gt;&lt;span style=&quot;&quot;&gt;&lt;span style=&quot;&quot;&gt;&lt;span style=&quot;white-space: pre;&quot;&gt;&amp;nbsp;&amp;nbsp;&amp;nbsp;&amp;nbsp;&lt;/span&gt;&lt;span style=&quot;white-space: pre;&quot;&gt;&amp;nbsp;&amp;nbsp;&amp;nbsp;&amp;nbsp;&lt;/span&gt;&lt;span style=&quot;white-space: pre;&quot;&gt;&amp;nbsp;&amp;nbsp;&amp;nbsp;&amp;nbsp;&lt;/span&gt;&lt;/span&gt;get_queryset()&lt;/span&gt;&lt;/div&gt;&lt;div&gt;&lt;span style=&quot;&quot;&gt;&lt;span style=&quot;&quot;&gt;&lt;span style=&quot;white-space: pre;&quot;&gt;&amp;nbsp;&amp;nbsp;&amp;nbsp;&amp;nbsp;&lt;/span&gt;&lt;span style=&quot;white-space: pre;&quot;&gt;&amp;nbsp;&amp;nbsp;&amp;nbsp;&amp;nbsp;&lt;/span&gt;&lt;span style=&quot;white-space: pre;&quot;&gt;&amp;nbsp;&amp;nbsp;&amp;nbsp;&amp;nbsp;&lt;/span&gt;&lt;span style=&quot;white-space: pre;&quot;&gt;&amp;nbsp;&amp;nbsp;&amp;nbsp;&amp;nbsp;&lt;/span&gt;&lt;/span&gt;data_views.AggregatedView.count_abandon_scopes&lt;/span&gt;&lt;/div&gt;&lt;div&gt;&lt;span style=&quot;&quot;&gt;&lt;span style=&quot;&quot;&gt;&lt;span style=&quot;white-space: pre;&quot;&gt;&amp;nbsp;&amp;nbsp;&amp;nbsp;&amp;nbsp;&lt;/span&gt;&lt;span style=&quot;white-space: pre;&quot;&gt;&amp;nbsp;&amp;nbsp;&amp;nbsp;&amp;nbsp;&lt;/span&gt;&lt;span style=&quot;white-space: pre;&quot;&gt;&amp;nbsp;&amp;nbsp;&amp;nbsp;&amp;nbsp;&lt;/span&gt;&lt;span style=&quot;white-space: pre;&quot;&gt;&amp;nbsp;&amp;nbsp;&amp;nbsp;&amp;nbsp;&lt;/span&gt;&lt;/span&gt;data_views.AggregatedView.bar_chart_data(&lt;/span&gt;&lt;/div&gt;&lt;div&gt;&lt;span style=&quot;&quot;&gt;&lt;span style=&quot;&quot;&gt;&lt;span style=&quot;white-space: pre;&quot;&gt;&amp;nbsp;&amp;nbsp;&amp;nbsp;&amp;nbsp;&lt;/span&gt;&lt;span style=&quot;white-space: pre;&quot;&gt;&amp;nbsp;&amp;nbsp;&amp;nbsp;&amp;nbsp;&lt;/span&gt;&lt;span style=&quot;white-space: pre;&quot;&gt;&amp;nbsp;&amp;nbsp;&amp;nbsp;&amp;nbsp;&lt;/span&gt;&lt;span style=&quot;white-space: pre;&quot;&gt;&amp;nbsp;&amp;nbsp;&amp;nbsp;&amp;nbsp;&lt;/span&gt;&lt;/span&gt;data_views.AggregatedView.timeline_chart&lt;span style=&quot;&quot;&gt;&lt;span style=&quot;white-space: pre;&quot;&gt;&amp;nbsp;&amp;nbsp;&amp;nbsp;&amp;nbsp;&lt;/span&gt;&lt;/span&gt;&lt;/span&gt;&lt;/div&gt;&lt;div&gt;&lt;span style=&quot;&quot;&gt;&lt;span style=&quot;&quot;&gt;&lt;span style=&quot;white-space: pre;&quot;&gt;&amp;nbsp;&amp;nbsp;&amp;nbsp;&amp;nbsp;&lt;/span&gt;&lt;span style=&quot;white-space: pre;&quot;&gt;&amp;nbsp;&amp;nbsp;&amp;nbsp;&amp;nbsp;&lt;/span&gt;&lt;span style=&quot;white-space: pre;&quot;&gt;&amp;nbsp;&amp;nbsp;&amp;nbsp;&amp;nbsp;&lt;/span&gt;&lt;span style=&quot;white-space: pre;&quot;&gt;&amp;nbsp;&amp;nbsp;&amp;nbsp;&amp;nbsp;&lt;/span&gt;&lt;/span&gt;PieChartSerializer(pie_chart_counts).data[&#39;values&#39;]&lt;/span&gt;&lt;/div&gt;&lt;div&gt;&lt;span style=&quot;&quot;&gt;&lt;span style=&quot;&quot;&gt;&lt;span style=&quot;white-space: pre;&quot;&gt;&amp;nbsp;&amp;nbsp;&amp;nbsp;&amp;nbsp;&lt;/span&gt;&lt;span style=&quot;white-space: pre;&quot;&gt;&amp;nbsp;&amp;nbsp;&amp;nbsp;&amp;nbsp;&lt;/span&gt;&lt;span style=&quot;white-space: pre;&quot;&gt;&amp;nbsp;&amp;nbsp;&amp;nbsp;&amp;nbsp;&lt;/span&gt;&lt;span style=&quot;white-space: pre;&quot;&gt;&amp;nbsp;&amp;nbsp;&amp;nbsp;&amp;nbsp;&lt;/span&gt;&lt;/span&gt;BarChartSerializer(bar_chart_counts).data[&#39;values&#39;]&lt;/span&gt;&lt;/div&gt;&lt;div&gt;&lt;span style=&quot;&quot;&gt;&lt;span style=&quot;&quot;&gt;&lt;span style=&quot;white-space: pre;&quot;&gt;&amp;nbsp;&amp;nbsp;&amp;nbsp;&amp;nbsp;&lt;/span&gt;&lt;span style=&quot;white-space: pre;&quot;&gt;&amp;nbsp;&amp;nbsp;&amp;nbsp;&amp;nbsp;&lt;/span&gt;&lt;span style=&quot;white-space: pre;&quot;&gt;&amp;nbsp;&amp;nbsp;&amp;nbsp;&amp;nbsp;&lt;/span&gt;&lt;span style=&quot;white-space: pre;&quot;&gt;&amp;nbsp;&amp;nbsp;&amp;nbsp;&amp;nbsp;&lt;/span&gt;&lt;/span&gt;TimelineSerializer(timeline_chart, many=True).data&lt;/span&gt;&lt;/div&gt;" style="rounded=0;whiteSpace=wrap;html=1;align=left;spacingTop=0;" vertex="1" parent="1">
          <mxGeometry x="510" y="1070" width="450" height="200" as="geometry" />
        </mxCell>
        <mxCell id="9rqynmllx5_fteItaD3S-50" value="&lt;div&gt;2.5.1.1 retrieve()&lt;/div&gt;&lt;div&gt;WellInterface.get_well()&lt;span style=&quot;&quot;&gt;&lt;/span&gt;&lt;/div&gt;&lt;div&gt;&lt;span style=&quot;&quot;&gt;&lt;span style=&quot;&quot;&gt;&lt;span style=&quot;white-space: pre;&quot;&gt;&amp;nbsp;&amp;nbsp;&amp;nbsp;&amp;nbsp;&lt;/span&gt;&lt;span style=&quot;white-space: pre;&quot;&gt;&amp;nbsp;&amp;nbsp;&amp;nbsp;&amp;nbsp;&lt;/span&gt;&lt;span style=&quot;white-space: pre;&quot;&gt;&amp;nbsp;&amp;nbsp;&amp;nbsp;&amp;nbsp;&lt;/span&gt;&lt;/span&gt;DetailedView.get_all_abandons_results()&lt;/span&gt;&lt;/div&gt;&lt;div&gt;&lt;span style=&quot;&quot;&gt;&lt;span style=&quot;&quot;&gt;&lt;span style=&quot;white-space: pre;&quot;&gt;&amp;nbsp;&amp;nbsp;&amp;nbsp;&amp;nbsp;&lt;/span&gt;&lt;span style=&quot;white-space: pre;&quot;&gt;&amp;nbsp;&amp;nbsp;&amp;nbsp;&amp;nbsp;&lt;/span&gt;&lt;span style=&quot;white-space: pre;&quot;&gt;&amp;nbsp;&amp;nbsp;&amp;nbsp;&amp;nbsp;&lt;/span&gt;&lt;/span&gt;DetailedView.get_abandon_summary()&lt;/span&gt;&lt;/div&gt;&lt;div&gt;&lt;span style=&quot;&quot;&gt;&lt;span style=&quot;&quot;&gt;&lt;span style=&quot;white-space: pre;&quot;&gt;&amp;nbsp;&amp;nbsp;&amp;nbsp;&amp;nbsp;&lt;/span&gt;&lt;span style=&quot;white-space: pre;&quot;&gt;&amp;nbsp;&amp;nbsp;&amp;nbsp;&amp;nbsp;&lt;/span&gt;&lt;span style=&quot;white-space: pre;&quot;&gt;&amp;nbsp;&amp;nbsp;&amp;nbsp;&amp;nbsp;&lt;/span&gt;&lt;/span&gt;WellSerializer()&lt;/span&gt;&lt;/div&gt;&lt;div&gt;&lt;span style=&quot;&quot;&gt;&lt;span style=&quot;&quot;&gt;&lt;span style=&quot;white-space: pre;&quot;&gt;&amp;nbsp;&amp;nbsp;&amp;nbsp;&amp;nbsp;&lt;/span&gt;&lt;span style=&quot;white-space: pre;&quot;&gt;&amp;nbsp;&amp;nbsp;&amp;nbsp;&amp;nbsp;&lt;/span&gt;&lt;span style=&quot;white-space: pre;&quot;&gt;&amp;nbsp;&amp;nbsp;&amp;nbsp;&amp;nbsp;&lt;/span&gt;&lt;/span&gt;AbandonSerializer()&lt;/span&gt;&lt;/div&gt;&lt;div&gt;&lt;span style=&quot;&quot;&gt;&lt;span style=&quot;&quot;&gt;&lt;span style=&quot;white-space: pre;&quot;&gt;&amp;nbsp;&amp;nbsp;&amp;nbsp;&amp;nbsp;&lt;/span&gt;&lt;span style=&quot;white-space: pre;&quot;&gt;&amp;nbsp;&amp;nbsp;&amp;nbsp;&amp;nbsp;&lt;/span&gt;&lt;span style=&quot;white-space: pre;&quot;&gt;&amp;nbsp;&amp;nbsp;&amp;nbsp;&amp;nbsp;&lt;/span&gt;&lt;/span&gt;AbandonEvaluationSerializer()&lt;/span&gt;&lt;/div&gt;" style="rounded=0;whiteSpace=wrap;html=1;align=left;spacingTop=0;" vertex="1" parent="1">
          <mxGeometry x="460" y="1320" width="490" height="120" as="geometry" />
        </mxCell>
        <mxCell id="9rqynmllx5_fteItaD3S-51" value="" style="edgeStyle=orthogonalEdgeStyle;rounded=0;orthogonalLoop=1;jettySize=auto;html=1;entryX=0;entryY=0.5;entryDx=0;entryDy=0;" edge="1" parent="1" source="9rqynmllx5_fteItaD3S-40" target="9rqynmllx5_fteItaD3S-47">
          <mxGeometry relative="1" as="geometry">
            <mxPoint x="443" y="930" as="sourcePoint" />
            <mxPoint x="490" y="960" as="targetPoint" />
            <Array as="points" />
          </mxGeometry>
        </mxCell>
        <mxCell id="9rqynmllx5_fteItaD3S-52" value="" style="edgeStyle=orthogonalEdgeStyle;rounded=0;orthogonalLoop=1;jettySize=auto;html=1;" edge="1" parent="1" source="9rqynmllx5_fteItaD3S-41" target="9rqynmllx5_fteItaD3S-49">
          <mxGeometry relative="1" as="geometry">
            <mxPoint x="448" y="1000" as="sourcePoint" />
            <mxPoint x="490" y="970" as="targetPoint" />
            <Array as="points" />
          </mxGeometry>
        </mxCell>
        <mxCell id="9rqynmllx5_fteItaD3S-53" value="" style="edgeStyle=orthogonalEdgeStyle;rounded=0;orthogonalLoop=1;jettySize=auto;html=1;exitX=1;exitY=0.5;exitDx=0;exitDy=0;" edge="1" parent="1" source="9rqynmllx5_fteItaD3S-46">
          <mxGeometry relative="1" as="geometry">
            <mxPoint x="446" y="1060" as="sourcePoint" />
            <mxPoint x="450" y="1370" as="targetPoint" />
            <Array as="points" />
          </mxGeometry>
        </mxCell>
        <mxCell id="9rqynmllx5_fteItaD3S-55" value="" style="rounded=0;whiteSpace=wrap;html=1;" vertex="1" parent="1">
          <mxGeometry x="80" y="1560" width="870" height="560" as="geometry" />
        </mxCell>
        <mxCell id="9rqynmllx5_fteItaD3S-56" value="Pasta&lt;br&gt;Logic \Wells" style="text;html=1;strokeColor=#6c8ebf;fillColor=#dae8fc;align=center;verticalAlign=middle;whiteSpace=wrap;rounded=0;fontSize=15;" vertex="1" parent="1">
          <mxGeometry x="342" y="1570" width="96" height="50" as="geometry" />
        </mxCell>
        <mxCell id="9rqynmllx5_fteItaD3S-57" value="Arquivo&lt;br&gt;well_Component.py" style="rounded=1;whiteSpace=wrap;html=1;" vertex="1" parent="1">
          <mxGeometry x="100" y="1780" width="120" height="60" as="geometry" />
        </mxCell>
        <mxCell id="9rqynmllx5_fteItaD3S-58" value="class WellBuilder(ABC)" style="rounded=0;whiteSpace=wrap;html=1;align=left;spacingTop=0;" vertex="1" parent="1">
          <mxGeometry x="250" y="1640" width="190" height="40" as="geometry" />
        </mxCell>
        <mxCell id="9rqynmllx5_fteItaD3S-59" value="&lt;div&gt;def warning_visitor&lt;/div&gt;&lt;div&gt; def get_intervals&lt;span style=&quot;&quot;&gt;&lt;/span&gt;&lt;/div&gt;&lt;div&gt;&lt;span style=&quot;&quot;&gt;&lt;span style=&quot;&quot;&gt;&lt;span style=&quot;white-space: pre;&quot;&gt;&amp;nbsp;&amp;nbsp;&amp;nbsp;&amp;nbsp;&lt;/span&gt;&lt;/span&gt; def get_equipments&lt;/span&gt;&lt;/div&gt;" style="rounded=0;whiteSpace=wrap;html=1;align=left;spacingTop=0;" vertex="1" parent="1">
          <mxGeometry x="480" y="1580" width="180" height="60" as="geometry" />
        </mxCell>
        <mxCell id="9rqynmllx5_fteItaD3S-60" value="" style="endArrow=classic;html=1;rounded=0;entryX=0;entryY=0.5;entryDx=0;entryDy=0;exitX=0.5;exitY=0;exitDx=0;exitDy=0;" edge="1" parent="1" source="9rqynmllx5_fteItaD3S-57" target="9rqynmllx5_fteItaD3S-58">
          <mxGeometry width="50" height="50" relative="1" as="geometry">
            <mxPoint x="200" y="1790" as="sourcePoint" />
            <mxPoint x="250" y="1740" as="targetPoint" />
          </mxGeometry>
        </mxCell>
        <mxCell id="9rqynmllx5_fteItaD3S-61" value="" style="endArrow=classic;html=1;rounded=0;entryX=0;entryY=0.5;entryDx=0;entryDy=0;exitX=1;exitY=0.5;exitDx=0;exitDy=0;" edge="1" parent="1" source="9rqynmllx5_fteItaD3S-58" target="9rqynmllx5_fteItaD3S-59">
          <mxGeometry width="50" height="50" relative="1" as="geometry">
            <mxPoint x="210" y="1800" as="sourcePoint" />
            <mxPoint x="320" y="1740" as="targetPoint" />
          </mxGeometry>
        </mxCell>
        <mxCell id="9rqynmllx5_fteItaD3S-62" value="" style="edgeStyle=orthogonalEdgeStyle;rounded=0;orthogonalLoop=1;jettySize=auto;html=1;entryX=0;entryY=0.5;entryDx=0;entryDy=0;" edge="1" parent="1" source="9rqynmllx5_fteItaD3S-63" target="9rqynmllx5_fteItaD3S-67">
          <mxGeometry relative="1" as="geometry">
            <mxPoint x="426" y="1800" as="targetPoint" />
            <Array as="points" />
          </mxGeometry>
        </mxCell>
        <mxCell id="9rqynmllx5_fteItaD3S-63" value="class ConcreteWellBuilder(WellBuilder)" style="rounded=0;whiteSpace=wrap;html=1;align=left;spacingTop=0;" vertex="1" parent="1">
          <mxGeometry x="250" y="1710" width="183" height="40" as="geometry" />
        </mxCell>
        <mxCell id="9rqynmllx5_fteItaD3S-64" value="" style="endArrow=classic;html=1;rounded=0;exitX=1;exitY=0.5;exitDx=0;exitDy=0;entryX=0;entryY=0.5;entryDx=0;entryDy=0;" edge="1" parent="1" source="9rqynmllx5_fteItaD3S-57" target="9rqynmllx5_fteItaD3S-63">
          <mxGeometry width="50" height="50" relative="1" as="geometry">
            <mxPoint x="200" y="1860" as="sourcePoint" />
            <mxPoint x="310" y="1800" as="targetPoint" />
          </mxGeometry>
        </mxCell>
        <mxCell id="9rqynmllx5_fteItaD3S-65" value="class Well_PA(ConcreteWellBuilder)" style="rounded=0;whiteSpace=wrap;html=1;align=left;spacingTop=0;" vertex="1" parent="1">
          <mxGeometry x="240" y="1780" width="198" height="40" as="geometry" />
        </mxCell>
        <mxCell id="9rqynmllx5_fteItaD3S-66" value="class Well_PA_Bulk(ConcreteWellBuilder)" style="rounded=0;whiteSpace=wrap;html=1;align=left;spacingTop=0;" vertex="1" parent="1">
          <mxGeometry x="240" y="1840" width="196" height="40" as="geometry" />
        </mxCell>
        <mxCell id="9rqynmllx5_fteItaD3S-67" value="&lt;div&gt;def load_well_properties_data()&lt;/div&gt;&lt;div&gt;WellPropertyInterface() --&amp;gt; properties\ file properties_interface.py&lt;span style=&quot;&quot;&gt;&lt;/span&gt;&lt;/div&gt;&lt;div&gt;&lt;span style=&quot;&quot;&gt;&lt;span style=&quot;&quot;&gt;&lt;span style=&quot;white-space: pre;&quot;&gt;&amp;nbsp;&amp;nbsp;&amp;nbsp;&amp;nbsp;&lt;/span&gt;&lt;span style=&quot;white-space: pre;&quot;&gt;&amp;nbsp;&amp;nbsp;&amp;nbsp;&amp;nbsp;&lt;/span&gt;&lt;/span&gt;def load_properties_data --&amp;gt; properties\ file properties_interface.py&lt;/span&gt;&lt;/div&gt;&lt;div&gt;&lt;span style=&quot;&quot;&gt;&lt;span style=&quot;&quot;&gt;&lt;span style=&quot;white-space: pre;&quot;&gt;&amp;nbsp;&amp;nbsp;&amp;nbsp;&amp;nbsp;&lt;/span&gt;&lt;/span&gt;def get_intervals()&lt;/span&gt;&lt;/div&gt;&lt;div&gt;&lt;span style=&quot;&quot;&gt;&lt;span style=&quot;&quot;&gt;&lt;span style=&quot;white-space: pre;&quot;&gt;&amp;nbsp;&amp;nbsp;&amp;nbsp;&amp;nbsp;&lt;/span&gt;&lt;/span&gt;def get_equipments()&lt;/span&gt;&lt;/div&gt;" style="rounded=0;whiteSpace=wrap;html=1;align=left;spacingTop=0;" vertex="1" parent="1">
          <mxGeometry x="475" y="1650" width="405" height="110" as="geometry" />
        </mxCell>
        <mxCell id="9rqynmllx5_fteItaD3S-68" value="classe WellInterface" style="rounded=0;whiteSpace=wrap;html=1;align=left;spacingTop=0;" vertex="1" parent="1">
          <mxGeometry x="235" y="1920" width="203" height="40" as="geometry" />
        </mxCell>
        <mxCell id="9rqynmllx5_fteItaD3S-69" value="&lt;div&gt;load_well_type(self)&lt;/div&gt;&lt;div&gt;&amp;nbsp; &amp;nbsp; &amp;nbsp;ordering_REV(self)&lt;/div&gt;&lt;div&gt; def warning_visitor()&lt;span style=&quot;&quot;&gt;&lt;/span&gt;&lt;/div&gt;" style="rounded=0;whiteSpace=wrap;html=1;align=left;spacingTop=0;" vertex="1" parent="1">
          <mxGeometry x="480" y="1770" width="230" height="60" as="geometry" />
        </mxCell>
        <mxCell id="9rqynmllx5_fteItaD3S-70" value="def validation_wells_data(self)&amp;nbsp;" style="rounded=0;whiteSpace=wrap;html=1;align=left;spacingTop=0;" vertex="1" parent="1">
          <mxGeometry x="480" y="1850" width="240" height="50" as="geometry" />
        </mxCell>
        <mxCell id="9rqynmllx5_fteItaD3S-71" value="&lt;div&gt;def get_well(cls, well_id):&lt;/div&gt;&lt;div&gt;&amp;nbsp; &amp;nbsp; return Well_PA(well_name=well_id)&lt;/div&gt;&lt;div&gt; def get_many_wells(cls, wellsNames, wellProps=None):&lt;span style=&quot;&quot;&gt;&lt;/span&gt;&lt;/div&gt;&lt;div&gt;&amp;nbsp; &amp;nbsp;wells = Well_PA_Bulk(wellsNames,&amp;nbsp; well_properties=wellProps)&lt;/div&gt;&lt;div&gt;&lt;span style=&quot;&quot;&gt;def get_well_properties&lt;/span&gt;&lt;/div&gt;&lt;div&gt;&lt;span style=&quot;&quot;&gt;def get_well_warnings&lt;/span&gt;&lt;/div&gt;&lt;div&gt;&lt;span style=&quot;&quot;&gt;def get_well_intervals_info&lt;/span&gt;&lt;/div&gt;&lt;div&gt;&lt;span style=&quot;&quot;&gt;def search_wells&lt;/span&gt;&lt;/div&gt;&lt;div&gt;&lt;span style=&quot;&quot;&gt;&lt;span style=&quot;&quot;&gt;&lt;span style=&quot;white-space: pre;&quot;&gt;&amp;nbsp;&amp;nbsp;&amp;nbsp;&amp;nbsp;&lt;/span&gt;&lt;/span&gt;WellPropertyInterface.search_wells --&amp;gt; properties\ file properties_interface.py&lt;/span&gt;&lt;/div&gt;" style="rounded=0;whiteSpace=wrap;html=1;align=left;spacingTop=0;" vertex="1" parent="1">
          <mxGeometry x="475" y="1930" width="440" height="150" as="geometry" />
        </mxCell>
        <mxCell id="9rqynmllx5_fteItaD3S-72" value="" style="edgeStyle=orthogonalEdgeStyle;rounded=0;orthogonalLoop=1;jettySize=auto;html=1;entryX=0;entryY=0.5;entryDx=0;entryDy=0;" edge="1" parent="1" source="9rqynmllx5_fteItaD3S-65" target="9rqynmllx5_fteItaD3S-69">
          <mxGeometry relative="1" as="geometry">
            <mxPoint x="443" y="1740" as="sourcePoint" />
            <mxPoint x="490" y="1770" as="targetPoint" />
            <Array as="points" />
          </mxGeometry>
        </mxCell>
        <mxCell id="9rqynmllx5_fteItaD3S-73" value="" style="edgeStyle=orthogonalEdgeStyle;rounded=0;orthogonalLoop=1;jettySize=auto;html=1;" edge="1" parent="1" source="9rqynmllx5_fteItaD3S-66" target="9rqynmllx5_fteItaD3S-70">
          <mxGeometry relative="1" as="geometry">
            <mxPoint x="448" y="1810" as="sourcePoint" />
            <mxPoint x="490" y="1780" as="targetPoint" />
            <Array as="points" />
          </mxGeometry>
        </mxCell>
        <mxCell id="9rqynmllx5_fteItaD3S-74" value="" style="edgeStyle=orthogonalEdgeStyle;rounded=0;orthogonalLoop=1;jettySize=auto;html=1;exitX=1;exitY=0.5;exitDx=0;exitDy=0;entryX=0;entryY=0.5;entryDx=0;entryDy=0;" edge="1" parent="1" source="9rqynmllx5_fteItaD3S-68" target="9rqynmllx5_fteItaD3S-71">
          <mxGeometry relative="1" as="geometry">
            <mxPoint x="446" y="1870" as="sourcePoint" />
            <mxPoint x="450" y="2180" as="targetPoint" />
            <Array as="points" />
          </mxGeometry>
        </mxCell>
        <mxCell id="9rqynmllx5_fteItaD3S-78" value="" style="endArrow=classic;html=1;rounded=0;entryX=0.399;entryY=0.006;entryDx=0;entryDy=0;entryPerimeter=0;" edge="1" parent="1" source="9rqynmllx5_fteItaD3S-47" target="9rqynmllx5_fteItaD3S-71">
          <mxGeometry width="50" height="50" relative="1" as="geometry">
            <mxPoint x="470" y="1410" as="sourcePoint" />
            <mxPoint x="620" y="1530" as="targetPoint" />
          </mxGeometry>
        </mxCell>
        <mxCell id="9rqynmllx5_fteItaD3S-79" value="" style="rounded=0;whiteSpace=wrap;html=1;" vertex="1" parent="1">
          <mxGeometry x="80" y="2140" width="870" height="1090" as="geometry" />
        </mxCell>
        <mxCell id="9rqynmllx5_fteItaD3S-80" value="Pasta&lt;br&gt;Logic \properties" style="text;html=1;strokeColor=#6c8ebf;fillColor=#dae8fc;align=center;verticalAlign=middle;whiteSpace=wrap;rounded=0;fontSize=15;" vertex="1" parent="1">
          <mxGeometry x="300" y="2190" width="148" height="50" as="geometry" />
        </mxCell>
        <mxCell id="9rqynmllx5_fteItaD3S-81" value="Arquivo&lt;br&gt;properties_interface.py" style="rounded=1;whiteSpace=wrap;html=1;" vertex="1" parent="1">
          <mxGeometry x="100" y="2400" width="130" height="60" as="geometry" />
        </mxCell>
        <mxCell id="9rqynmllx5_fteItaD3S-82" value="WellPropertyManager" style="rounded=0;whiteSpace=wrap;html=1;align=left;spacingTop=0;" vertex="1" parent="1">
          <mxGeometry x="270" y="2290" width="190" height="40" as="geometry" />
        </mxCell>
        <mxCell id="9rqynmllx5_fteItaD3S-83" value="&lt;div&gt;init&lt;/div&gt;&lt;div&gt;&amp;nbsp; &amp;nbsp;self.repository = DataAccessFacade(source, repo_config) --cria o repository --&amp;gt;datasoiurces\datasource_interface.py&lt;span style=&quot;&quot;&gt;&lt;/span&gt;&lt;/div&gt;&lt;div&gt;&lt;span style=&quot;&quot;&gt;&lt;span style=&quot;&quot;&gt;&lt;span style=&quot;white-space: pre;&quot;&gt;&amp;nbsp;&amp;nbsp;&amp;nbsp;&amp;nbsp;&lt;/span&gt;&lt;/span&gt;&amp;nbsp; def get_prop_data&lt;/span&gt;&lt;/div&gt;&lt;div&gt;&lt;span style=&quot;&quot;&gt;&lt;span style=&quot;&quot;&gt;&lt;span style=&quot;white-space: pre;&quot;&gt;&amp;nbsp;&amp;nbsp;&amp;nbsp;&amp;nbsp;&lt;/span&gt;&lt;/span&gt;&amp;nbsp; def fetch_all_props&lt;/span&gt;&lt;/div&gt;&lt;div&gt;&lt;span style=&quot;&quot;&gt;&lt;span style=&quot;&quot;&gt;&lt;span style=&quot;white-space: pre;&quot;&gt;&amp;nbsp;&amp;nbsp;&amp;nbsp;&amp;nbsp;&lt;/span&gt;&lt;/span&gt;&amp;nbsp; def search_well_by_params&lt;/span&gt;&lt;/div&gt;&lt;div&gt;&lt;span style=&quot;&quot;&gt;&lt;span style=&quot;&quot;&gt;&lt;span style=&quot;white-space: pre;&quot;&gt;&amp;nbsp;&amp;nbsp;&amp;nbsp;&amp;nbsp;&lt;/span&gt;&lt;/span&gt;&amp;nbsp; def update&lt;/span&gt;&lt;/div&gt;" style="rounded=0;whiteSpace=wrap;html=1;align=left;spacingTop=0;" vertex="1" parent="1">
          <mxGeometry x="490" y="2200" width="390" height="120" as="geometry" />
        </mxCell>
        <mxCell id="9rqynmllx5_fteItaD3S-84" value="" style="endArrow=classic;html=1;rounded=0;entryX=0;entryY=0.5;entryDx=0;entryDy=0;exitX=0.5;exitY=0;exitDx=0;exitDy=0;" edge="1" parent="1" source="9rqynmllx5_fteItaD3S-81" target="9rqynmllx5_fteItaD3S-82">
          <mxGeometry width="50" height="50" relative="1" as="geometry">
            <mxPoint x="210" y="2410" as="sourcePoint" />
            <mxPoint x="260" y="2360" as="targetPoint" />
          </mxGeometry>
        </mxCell>
        <mxCell id="9rqynmllx5_fteItaD3S-85" value="" style="endArrow=classic;html=1;rounded=0;entryX=0;entryY=0.5;entryDx=0;entryDy=0;exitX=1;exitY=0.5;exitDx=0;exitDy=0;" edge="1" parent="1" source="9rqynmllx5_fteItaD3S-82" target="9rqynmllx5_fteItaD3S-83">
          <mxGeometry width="50" height="50" relative="1" as="geometry">
            <mxPoint x="220" y="2420" as="sourcePoint" />
            <mxPoint x="330" y="2360" as="targetPoint" />
          </mxGeometry>
        </mxCell>
        <mxCell id="9rqynmllx5_fteItaD3S-86" value="" style="edgeStyle=orthogonalEdgeStyle;rounded=0;orthogonalLoop=1;jettySize=auto;html=1;entryX=0;entryY=0.5;entryDx=0;entryDy=0;" edge="1" parent="1" source="9rqynmllx5_fteItaD3S-87" target="9rqynmllx5_fteItaD3S-91">
          <mxGeometry relative="1" as="geometry">
            <mxPoint x="436" y="2420" as="targetPoint" />
            <Array as="points" />
          </mxGeometry>
        </mxCell>
        <mxCell id="9rqynmllx5_fteItaD3S-87" value="class WellPropertyInterface:" style="rounded=0;whiteSpace=wrap;html=1;align=left;spacingTop=0;" vertex="1" parent="1">
          <mxGeometry x="260" y="2380" width="183" height="40" as="geometry" />
        </mxCell>
        <mxCell id="9rqynmllx5_fteItaD3S-88" value="" style="endArrow=classic;html=1;rounded=0;exitX=1;exitY=0.5;exitDx=0;exitDy=0;entryX=0;entryY=0.5;entryDx=0;entryDy=0;" edge="1" parent="1" source="9rqynmllx5_fteItaD3S-81" target="9rqynmllx5_fteItaD3S-87">
          <mxGeometry width="50" height="50" relative="1" as="geometry">
            <mxPoint x="210" y="2480" as="sourcePoint" />
            <mxPoint x="320" y="2420" as="targetPoint" />
          </mxGeometry>
        </mxCell>
        <mxCell id="9rqynmllx5_fteItaD3S-89" value="class AbstractWellProperty:" style="rounded=0;whiteSpace=wrap;html=1;align=left;spacingTop=0;" vertex="1" parent="1">
          <mxGeometry x="262" y="2550" width="198" height="40" as="geometry" />
        </mxCell>
        <mxCell id="9rqynmllx5_fteItaD3S-90" value="&lt;div&gt;class IPF(AbstractWellProperty):&lt;/div&gt;&lt;div&gt;class REV(AbstractWellProperty):&lt;span style=&quot;&quot;&gt;&lt;/span&gt;&lt;/div&gt;&lt;div&gt;&lt;span style=&quot;&quot;&gt;&lt;span style=&quot;&quot;&gt;&lt;span style=&quot;white-space: pre;&quot;&gt;&amp;nbsp;&amp;nbsp;&amp;nbsp;&amp;nbsp;&lt;/span&gt;&lt;/span&gt;class IRS(AbstractWellProperty):&lt;/span&gt;&lt;/div&gt;&lt;div&gt;&lt;span style=&quot;&quot;&gt;&lt;span style=&quot;&quot;&gt;&lt;span style=&quot;white-space: pre;&quot;&gt;&amp;nbsp;&amp;nbsp;&amp;nbsp;&amp;nbsp;&lt;/span&gt;&lt;/span&gt;class LDA(AbstractWellProperty):&lt;/span&gt;&lt;/div&gt;&lt;div&gt;&lt;span style=&quot;&quot;&gt;&lt;span style=&quot;&quot;&gt;&lt;span style=&quot;white-space: pre;&quot;&gt;&amp;nbsp;&amp;nbsp;&amp;nbsp;&amp;nbsp;&lt;/span&gt;&lt;/span&gt;class PROF(AbstractWellProperty):&lt;/span&gt;&lt;/div&gt;&lt;div&gt;&lt;span style=&quot;&quot;&gt;&lt;span style=&quot;&quot;&gt;&lt;span style=&quot;white-space: pre;&quot;&gt;&amp;nbsp;&amp;nbsp;&amp;nbsp;&amp;nbsp;&lt;/span&gt;&lt;/span&gt;class HighInclination(AbstractWellProperty):&lt;/span&gt;&lt;/div&gt;&lt;div&gt;&lt;span style=&quot;&quot;&gt;&lt;span style=&quot;&quot;&gt;&lt;span style=&quot;white-space: pre;&quot;&gt;&amp;nbsp;&amp;nbsp;&amp;nbsp;&amp;nbsp;&lt;/span&gt;&lt;/span&gt;class CompetenceLimit(AbstractWellProperty):&lt;/span&gt;&lt;/div&gt;&lt;div&gt;&lt;span style=&quot;&quot;&gt;&lt;span style=&quot;&quot;&gt;&lt;span style=&quot;white-space: pre;&quot;&gt;&amp;nbsp;&amp;nbsp;&amp;nbsp;&amp;nbsp;&lt;/span&gt;&lt;/span&gt;class Cement(AbstractWellProperty):&lt;/span&gt;&lt;/div&gt;&lt;div&gt;&lt;span style=&quot;&quot;&gt;&lt;span style=&quot;&quot;&gt;&lt;span style=&quot;white-space: pre;&quot;&gt;&amp;nbsp;&amp;nbsp;&amp;nbsp;&amp;nbsp;&lt;/span&gt;&lt;/span&gt;class Basin(AbstractWellProperty):&lt;/span&gt;&lt;/div&gt;&lt;div&gt;&lt;span style=&quot;&quot;&gt;&lt;span style=&quot;&quot;&gt;&lt;span style=&quot;white-space: pre;&quot;&gt;&amp;nbsp;&amp;nbsp;&amp;nbsp;&amp;nbsp;&lt;/span&gt;&lt;/span&gt;class Field(AbstractWellProperty):&lt;/span&gt;&lt;/div&gt;&lt;div&gt;&lt;span style=&quot;&quot;&gt;&lt;span style=&quot;&quot;&gt;&lt;span style=&quot;white-space: pre;&quot;&gt;&amp;nbsp;&amp;nbsp;&amp;nbsp;&amp;nbsp;&lt;/span&gt;&lt;/span&gt;class UEP(AbstractWellProperty):&lt;/span&gt;&lt;/div&gt;&lt;div&gt;&lt;span style=&quot;&quot;&gt;&lt;span style=&quot;&quot;&gt;&lt;span style=&quot;white-space: pre;&quot;&gt;&amp;nbsp;&amp;nbsp;&amp;nbsp;&amp;nbsp;&lt;/span&gt;&lt;/span&gt;class InterventionDate(AbstractWellProperty):&lt;/span&gt;&lt;/div&gt;&lt;div&gt;&lt;span style=&quot;&quot;&gt;&lt;span style=&quot;&quot;&gt;&lt;span style=&quot;white-space: pre;&quot;&gt;&amp;nbsp;&amp;nbsp;&amp;nbsp;&amp;nbsp;&lt;/span&gt;&lt;/span&gt;class WellToolModel(AbstractWellProperty):&lt;/span&gt;&lt;/div&gt;&lt;div&gt;&lt;span style=&quot;&quot;&gt;&lt;span style=&quot;&quot;&gt;&lt;span style=&quot;white-space: pre;&quot;&gt;&amp;nbsp;&amp;nbsp;&amp;nbsp;&amp;nbsp;&lt;/span&gt;&lt;/span&gt;class Code(AbstractWellProperty):&lt;/span&gt;&lt;/div&gt;&lt;div&gt;&lt;span style=&quot;&quot;&gt;&lt;span style=&quot;&quot;&gt;&lt;span style=&quot;white-space: pre;&quot;&gt;&amp;nbsp;&amp;nbsp;&amp;nbsp;&amp;nbsp;&lt;/span&gt;&lt;/span&gt;class VerticalDistanceIPF(AbstractWellProperty):&lt;/span&gt;&lt;/div&gt;&lt;div&gt;&lt;span style=&quot;&quot;&gt;&lt;span style=&quot;&quot;&gt;&lt;span style=&quot;white-space: pre;&quot;&gt;&amp;nbsp;&amp;nbsp;&amp;nbsp;&amp;nbsp;&lt;/span&gt;&lt;/span&gt;class WellAbandonPhases(AbstractWellProperty):&lt;/span&gt;&lt;/div&gt;&lt;div&gt;&lt;span style=&quot;&quot;&gt;&lt;span style=&quot;white-space: pre;&quot;&gt;&amp;nbsp;&amp;nbsp;&amp;nbsp;&amp;nbsp;&lt;/span&gt;&lt;/span&gt;&lt;/div&gt;&lt;div&gt;&lt;span style=&quot;&quot;&gt;&lt;span style=&quot;&quot;&gt;&lt;span style=&quot;white-space: pre;&quot;&gt;&amp;nbsp;&amp;nbsp;&amp;nbsp;&amp;nbsp;&lt;/span&gt;&lt;/span&gt;class PDG(AbstractWellProperty):&lt;/span&gt;&lt;/div&gt;&lt;div&gt;&lt;span style=&quot;&quot;&gt;&lt;span style=&quot;&quot;&gt;&lt;span style=&quot;white-space: pre;&quot;&gt;&amp;nbsp;&amp;nbsp;&amp;nbsp;&amp;nbsp;&lt;/span&gt;&lt;/span&gt;class TSR(AbstractWellProperty):&lt;/span&gt;&lt;/div&gt;&lt;div&gt;&lt;span style=&quot;&quot;&gt;&lt;span style=&quot;&quot;&gt;&lt;span style=&quot;white-space: pre;&quot;&gt;&amp;nbsp;&amp;nbsp;&amp;nbsp;&amp;nbsp;&lt;/span&gt;&lt;/span&gt;class Nipple(AbstractWellProperty):&lt;/span&gt;&lt;/div&gt;&lt;div&gt;&lt;span style=&quot;&quot;&gt;&lt;span style=&quot;&quot;&gt;&lt;span style=&quot;white-space: pre;&quot;&gt;&amp;nbsp;&amp;nbsp;&amp;nbsp;&amp;nbsp;&lt;/span&gt;&lt;/span&gt;class MGL(AbstractWellProperty):&lt;/span&gt;&lt;/div&gt;&lt;div&gt;&lt;span style=&quot;&quot;&gt;&lt;span style=&quot;&quot;&gt;&lt;span style=&quot;white-space: pre;&quot;&gt;&amp;nbsp;&amp;nbsp;&amp;nbsp;&amp;nbsp;&lt;/span&gt;&lt;/span&gt;class Packer(AbstractWellProperty):&lt;/span&gt;&lt;/div&gt;&lt;div&gt;&lt;span style=&quot;&quot;&gt;&lt;span style=&quot;&quot;&gt;&lt;span style=&quot;white-space: pre;&quot;&gt;&amp;nbsp;&amp;nbsp;&amp;nbsp;&amp;nbsp;&lt;/span&gt;&lt;/span&gt;class Peixe(AbstractWellProperty):&lt;/span&gt;&lt;/div&gt;&lt;div&gt;&lt;span style=&quot;&quot;&gt;&lt;span style=&quot;&quot;&gt;&lt;span style=&quot;white-space: pre;&quot;&gt;&amp;nbsp;&amp;nbsp;&amp;nbsp;&amp;nbsp;&lt;/span&gt;&lt;/span&gt;class DHSV(AbstractWellProperty):&lt;/span&gt;&lt;/div&gt;&lt;div&gt;&lt;span style=&quot;&quot;&gt;&lt;span style=&quot;&quot;&gt;&lt;span style=&quot;white-space: pre;&quot;&gt;&amp;nbsp;&amp;nbsp;&amp;nbsp;&amp;nbsp;&lt;/span&gt;&lt;/span&gt;class OilRig(AbstractWellProperty):&lt;/span&gt;&lt;/div&gt;&lt;div&gt;&lt;span style=&quot;&quot;&gt;&lt;span style=&quot;&quot;&gt;&lt;span style=&quot;white-space: pre;&quot;&gt;&amp;nbsp;&amp;nbsp;&amp;nbsp;&amp;nbsp;&lt;/span&gt;&lt;/span&gt;class InferiorCompletation(AbstractWellProperty):&lt;/span&gt;&lt;/div&gt;&lt;div&gt;&lt;span style=&quot;&quot;&gt;&lt;span style=&quot;&quot;&gt;&lt;span style=&quot;white-space: pre;&quot;&gt;&amp;nbsp;&amp;nbsp;&amp;nbsp;&amp;nbsp;&lt;/span&gt;&lt;/span&gt;class COPWatertight(AbstractWellProperty):&lt;/span&gt;&lt;/div&gt;&lt;div&gt;&lt;span style=&quot;&quot;&gt;&lt;span style=&quot;&quot;&gt;&lt;span style=&quot;white-space: pre;&quot;&gt;&amp;nbsp;&amp;nbsp;&amp;nbsp;&amp;nbsp;&lt;/span&gt;&lt;/span&gt;class PrimaryCimentationVerification(AbstractWellProperty):&lt;/span&gt;&lt;/div&gt;&lt;div&gt;&lt;span style=&quot;&quot;&gt;&lt;span style=&quot;&quot;&gt;&lt;span style=&quot;white-space: pre;&quot;&gt;&amp;nbsp;&amp;nbsp;&amp;nbsp;&amp;nbsp;&lt;/span&gt;&lt;/span&gt;class ANMXOWatertight(AbstractWellProperty):&lt;/span&gt;&lt;/div&gt;&lt;div&gt;&lt;span style=&quot;&quot;&gt;&lt;span style=&quot;&quot;&gt;&lt;span style=&quot;white-space: pre;&quot;&gt;&amp;nbsp;&amp;nbsp;&amp;nbsp;&amp;nbsp;&lt;/span&gt;&lt;/span&gt;class Incrustation(AbstractWellProperty):&lt;/span&gt;&lt;/div&gt;&lt;div&gt;&lt;span style=&quot;&quot;&gt;&lt;span style=&quot;&quot;&gt;&lt;span style=&quot;white-space: pre;&quot;&gt;&amp;nbsp;&amp;nbsp;&amp;nbsp;&amp;nbsp;&lt;/span&gt;&lt;/span&gt;class IsWellSurgent(AbstractWellProperty):&lt;/span&gt;&lt;/div&gt;&lt;div&gt;&lt;span style=&quot;&quot;&gt;&lt;span style=&quot;&quot;&gt;&lt;span style=&quot;white-space: pre;&quot;&gt;&amp;nbsp;&amp;nbsp;&amp;nbsp;&amp;nbsp;&lt;/span&gt;&lt;/span&gt;class SurgingLevel(AbstractWellProperty):&lt;/span&gt;&lt;/div&gt;&lt;div&gt;&lt;span style=&quot;&quot;&gt;&lt;span style=&quot;&quot;&gt;&lt;span style=&quot;white-space: pre;&quot;&gt;&amp;nbsp;&amp;nbsp;&amp;nbsp;&amp;nbsp;&lt;/span&gt;&lt;/span&gt;class MarineLife(AbstractWellProperty):&lt;/span&gt;&lt;/div&gt;&lt;div&gt;&lt;span style=&quot;&quot;&gt;&lt;span style=&quot;&quot;&gt;&lt;span style=&quot;white-space: pre;&quot;&gt;&amp;nbsp;&amp;nbsp;&amp;nbsp;&amp;nbsp;&lt;/span&gt;&lt;/span&gt;class ExtrasWell(AbstractWellProperty):&lt;/span&gt;&lt;/div&gt;&lt;div&gt;&lt;span style=&quot;&quot;&gt;&lt;span style=&quot;&quot;&gt;&lt;span style=&quot;white-space: pre;&quot;&gt;&amp;nbsp;&amp;nbsp;&amp;nbsp;&amp;nbsp;&lt;/span&gt;&lt;/span&gt;class ExtrasSSUB(AbstractWellProperty):&lt;/span&gt;&lt;/div&gt;" style="rounded=0;whiteSpace=wrap;html=1;align=left;spacingTop=0;" vertex="1" parent="1">
          <mxGeometry x="270" y="2660" width="407" height="540" as="geometry" />
        </mxCell>
        <mxCell id="9rqynmllx5_fteItaD3S-91" value="&lt;div&gt;init&lt;/div&gt;&lt;div&gt;load_well_properties()--&amp;gt; properties\well_properties.py&lt;span style=&quot;&quot;&gt;&lt;/span&gt;&lt;/div&gt;&lt;div&gt;&lt;span style=&quot;&quot;&gt;&lt;span style=&quot;&quot;&gt;&lt;span style=&quot;white-space: pre;&quot;&gt;&amp;nbsp;&amp;nbsp;&amp;nbsp;&amp;nbsp;&lt;/span&gt;&lt;/span&gt;&amp;nbsp; &amp;nbsp;&lt;span style=&quot;&quot;&gt;&lt;span style=&quot;white-space: pre;&quot;&gt;&amp;nbsp;&amp;nbsp;&amp;nbsp;&amp;nbsp;&lt;/span&gt;&lt;/span&gt;ManagerInstance = WellPropertyManager&amp;nbsp;&lt;/span&gt;&lt;/div&gt;&lt;div&gt;&lt;span style=&quot;&quot;&gt;&lt;span style=&quot;&quot;&gt;&lt;span style=&quot;white-space: pre;&quot;&gt;&amp;nbsp;&amp;nbsp;&amp;nbsp;&amp;nbsp;&lt;/span&gt;&lt;/span&gt;&amp;nbsp; def load_properties_data(self)&lt;/span&gt;&lt;/div&gt;&lt;div&gt;&lt;span style=&quot;&quot;&gt;&lt;span style=&quot;&quot;&gt;&lt;span style=&quot;white-space: pre;&quot;&gt;&amp;nbsp;&amp;nbsp;&amp;nbsp;&amp;nbsp;&lt;/span&gt;&lt;/span&gt;&amp;nbsp; def search_wells()&lt;/span&gt;&lt;/div&gt;&lt;div&gt;&lt;span style=&quot;&quot;&gt;&lt;span style=&quot;&quot;&gt;&lt;span style=&quot;white-space: pre;&quot;&gt;&amp;nbsp;&amp;nbsp;&amp;nbsp;&amp;nbsp;&lt;/span&gt;&lt;span style=&quot;white-space: pre;&quot;&gt;&amp;nbsp;&amp;nbsp;&amp;nbsp;&amp;nbsp;&lt;/span&gt;&lt;span style=&quot;white-space: pre;&quot;&gt;&amp;nbsp;&amp;nbsp;&amp;nbsp;&amp;nbsp;&lt;/span&gt;&lt;/span&gt;WellPropertyManager( **config )&lt;/span&gt;&lt;/div&gt;&lt;div&gt;&lt;span style=&quot;&quot;&gt;&lt;span style=&quot;&quot;&gt;&lt;span style=&quot;white-space: pre;&quot;&gt;&amp;nbsp;&amp;nbsp;&amp;nbsp;&amp;nbsp;&lt;/span&gt;&lt;span style=&quot;white-space: pre;&quot;&gt;&amp;nbsp;&amp;nbsp;&amp;nbsp;&amp;nbsp;&lt;/span&gt;&lt;span style=&quot;white-space: pre;&quot;&gt;&amp;nbsp;&amp;nbsp;&amp;nbsp;&amp;nbsp;&lt;/span&gt;&lt;/span&gt;manager.search_well_by_params( params, well_props=well_props)&amp;nbsp;&lt;/span&gt;&lt;/div&gt;&lt;div&gt;&lt;span style=&quot;&quot;&gt;&lt;span style=&quot;&quot;&gt;&lt;span style=&quot;white-space: pre;&quot;&gt;&amp;nbsp;&amp;nbsp;&amp;nbsp;&amp;nbsp;&lt;/span&gt;&lt;span style=&quot;white-space: pre;&quot;&gt;&amp;nbsp;&amp;nbsp;&amp;nbsp;&amp;nbsp;&lt;/span&gt;&lt;span style=&quot;white-space: pre;&quot;&gt;&amp;nbsp;&amp;nbsp;&amp;nbsp;&amp;nbsp;&lt;/span&gt;&lt;/span&gt;property_interface.load_properties_data()&lt;/span&gt;&lt;/div&gt;&lt;div&gt;&lt;br&gt;&lt;/div&gt;" style="rounded=0;whiteSpace=wrap;html=1;align=left;spacingTop=0;" vertex="1" parent="1">
          <mxGeometry x="475" y="2330" width="405" height="140" as="geometry" />
        </mxCell>
        <mxCell id="9rqynmllx5_fteItaD3S-93" value="&lt;div&gt;__init__(self, well_name, ManagerInstance=None, **kwargs):&lt;/div&gt;&lt;div&gt;&amp;nbsp; &amp;nbsp; &amp;nbsp; &amp;nbsp; self.well_name = well_name&lt;/div&gt;&lt;div&gt;&amp;nbsp; &amp;nbsp; &amp;nbsp; &amp;nbsp; self.manager = ManagerInstance&lt;/div&gt;&lt;div&gt;&amp;nbsp;&lt;/div&gt;&lt;div&gt;&amp;nbsp;def load_well_properties():&lt;/div&gt;" style="rounded=0;whiteSpace=wrap;html=1;align=left;spacingTop=0;" vertex="1" parent="1">
          <mxGeometry x="510" y="2510" width="360" height="120" as="geometry" />
        </mxCell>
        <mxCell id="9rqynmllx5_fteItaD3S-96" value="" style="edgeStyle=orthogonalEdgeStyle;rounded=0;orthogonalLoop=1;jettySize=auto;html=1;entryX=0;entryY=0.5;entryDx=0;entryDy=0;" edge="1" parent="1" source="9rqynmllx5_fteItaD3S-89" target="9rqynmllx5_fteItaD3S-93">
          <mxGeometry relative="1" as="geometry">
            <mxPoint x="453" y="2360" as="sourcePoint" />
            <mxPoint x="500" y="2390" as="targetPoint" />
            <Array as="points" />
          </mxGeometry>
        </mxCell>
        <mxCell id="9rqynmllx5_fteItaD3S-99" value="Arquivo&lt;br&gt;well_properties.py" style="rounded=1;whiteSpace=wrap;html=1;" vertex="1" parent="1">
          <mxGeometry x="100" y="2655" width="130" height="60" as="geometry" />
        </mxCell>
        <mxCell id="9rqynmllx5_fteItaD3S-100" style="edgeStyle=orthogonalEdgeStyle;rounded=0;orthogonalLoop=1;jettySize=auto;html=1;exitX=0.5;exitY=1;exitDx=0;exitDy=0;" edge="1" parent="1" source="9rqynmllx5_fteItaD3S-90" target="9rqynmllx5_fteItaD3S-90">
          <mxGeometry relative="1" as="geometry" />
        </mxCell>
        <mxCell id="9rqynmllx5_fteItaD3S-102" value="" style="endArrow=classic;html=1;rounded=0;" edge="1" parent="1" source="9rqynmllx5_fteItaD3S-89" target="9rqynmllx5_fteItaD3S-90">
          <mxGeometry width="50" height="50" relative="1" as="geometry">
            <mxPoint x="240" y="2440" as="sourcePoint" />
            <mxPoint x="270" y="2410" as="targetPoint" />
          </mxGeometry>
        </mxCell>
        <mxCell id="9rqynmllx5_fteItaD3S-103" value="" style="endArrow=classic;html=1;rounded=0;exitX=0.75;exitY=0;exitDx=0;exitDy=0;entryX=0.25;entryY=1;entryDx=0;entryDy=0;" edge="1" parent="1" source="9rqynmllx5_fteItaD3S-99" target="9rqynmllx5_fteItaD3S-89">
          <mxGeometry width="50" height="50" relative="1" as="geometry">
            <mxPoint x="240" y="2695" as="sourcePoint" />
            <mxPoint x="280" y="2762" as="targetPoint" />
          </mxGeometry>
        </mxCell>
        <mxCell id="9rqynmllx5_fteItaD3S-104" value="" style="rounded=0;whiteSpace=wrap;html=1;" vertex="1" parent="1">
          <mxGeometry x="75" y="3290" width="870" height="560" as="geometry" />
        </mxCell>
        <mxCell id="9rqynmllx5_fteItaD3S-105" value="Pasta&lt;br&gt;Logic \datasources" style="text;html=1;strokeColor=#6c8ebf;fillColor=#dae8fc;align=center;verticalAlign=middle;whiteSpace=wrap;rounded=0;fontSize=15;" vertex="1" parent="1">
          <mxGeometry x="310" y="3300" width="140" height="50" as="geometry" />
        </mxCell>
        <mxCell id="9rqynmllx5_fteItaD3S-106" value="Arquivo&lt;br&gt;datasource_interface.py" style="rounded=1;whiteSpace=wrap;html=1;" vertex="1" parent="1">
          <mxGeometry x="95" y="3510" width="165" height="60" as="geometry" />
        </mxCell>
        <mxCell id="9rqynmllx5_fteItaD3S-124" value="" style="endArrow=classic;html=1;rounded=0;" edge="1" parent="1" source="9rqynmllx5_fteItaD3S-71" target="9rqynmllx5_fteItaD3S-91">
          <mxGeometry width="50" height="50" relative="1" as="geometry">
            <mxPoint x="470" y="2320" as="sourcePoint" />
            <mxPoint x="500" y="2270" as="targetPoint" />
          </mxGeometry>
        </mxCell>
        <mxCell id="9rqynmllx5_fteItaD3S-125" value="" style="edgeStyle=orthogonalEdgeStyle;rounded=0;orthogonalLoop=1;jettySize=auto;html=1;" edge="1" parent="1" source="9rqynmllx5_fteItaD3S-83" target="9rqynmllx5_fteItaD3S-106">
          <mxGeometry relative="1" as="geometry">
            <mxPoint x="485" y="2410" as="targetPoint" />
            <Array as="points" />
            <mxPoint x="453" y="2410" as="sourcePoint" />
          </mxGeometry>
        </mxCell>
      </root>
    </mxGraphModel>
  </diagram>
</mxfile>
